<!--?xml version="1.0" encoding="utf-8"?-->
<!-- Generator: Adobe Illustrator 18.1.1, SVG Export Plug-In . SVG Version: 6.00 Build 0)  -->

<svg version="1.1" id="_x31_0" xmlns="http://www.w3.org/2000/svg" xmlns:xlink="http://www.w3.org/1999/xlink" x="0px" y="0px" viewBox="0 0 512 512" style="width: 256px; height: 256px; opacity: 1;" xml:space="preserve">
<style type="text/css">
	.st0{fill:#374149;}
</style>
<g>
	<path class="st0" d="M511.761,476.83c0-0.078-0.078-0.242-0.078-0.32c-0.242-0.969-0.402-1.852-0.644-2.821
		c-0.161-0.645-0.242-1.207-0.402-1.851c0-0.161-0.082-0.242-0.082-0.402c-0.078-0.16-0.078-0.242-0.078-0.242
		c-20.214-90.438-69.422-303.676-77.23-326.387c-2.98-11.758-11.277-24.805-19.734-33.34c-2.898-3.382-6.117-6.441-9.422-9.343
		l-0.078-0.078c-12.644-11.195-27.301-18.442-42.523-25.45c-8.375-3.542-17.394-5.878-25.688-9.746c0-18.118,3.703-54.52-23.195-55
		c-18.922-0.402-38.011,0-56.934,0h-30.442c-12,0-30.683-3.465-40.106,5.476c-0.886,0.723-1.613,1.528-2.335,2.414
		c-6.606,7.652-6.364,17.152-6.766,26.738c-0.321,6.762-0.402,13.61-0.402,20.371c-13.93,6.445-28.832,10.07-42.36,17.558
		c-2.254,1.047-4.43,2.254-6.523,3.625c-21.504,12.562-39.621,31.649-48.078,55.406c-0.16,0.402-0.402,0.887-0.484,1.367
		c-4.266,12.242-6.442,25.29-9.258,37.93c-2.981,13.371-21.504,88.258-27.786,116.364C30.018,348.631,18.905,390.338,7.87,439.947
		c-2.094,9.422-4.266,18.926-6.359,28.348c-2.016,9.18-4.11,21.742,8.695,23.836l49.527,8.457
		c11.114,1.852,14.496-8.133,16.348-16.75c0-0.082,0-0.082,0-0.16c0.402-1.532,0.644-3.141,1.046-4.833
		c0.082-0.324,0.164-0.644,0.242-1.046c1.531-6.606,2.981-13.207,4.351-19.813c0.078-0.242,0.161-0.484,0.161-0.805
		c12.238-54.199,23.515-108.637,35.273-162.996c2.977-13.614,4.668-21.176,9.985-34.141c0.805-1.934,3.301-8.297,6.363-6.523
		c0.274,0.152,0.477,0.402,0.676,0.656c0.098,0.122,0.199,0.234,0.281,0.375c1.493,2.641,0.286,8.492,0.008,10.562
		c-0.402,3.547-0.805,7.168-1.129,10.793c-3.301,36.402-5.875,64.985-8.695,101.387c-2.094,27.461-4.027,54.922-6.684,82.301
		c-0.726,7.09,3.219,11.114,9.422,14.254c14.332,7.09,31.973,8.942,47.675,10.875c19.84,2.618,39.836,3.977,59.833,4.477
		c0.246,0.008,0.48,0.023,0.726,0.031v-0.004c0.054,0,0.11,0.004,0.16,0.004V208.986l44.938-65.066V76.138l0.031-13.641
		c-0.008,0-0.019,0.004-0.031,0.004v-0.16c-19.649,4.027-40.106,3.301-59.43-2.254c-4.27-1.207-8.297-2.661-11.68-4.188
		c-15.621-7.41-6.766-22.71-2.578-22.71h97.286c4.27,0,13.125,15.301-2.578,22.71c-1.531,0.723-3.14,1.367-4.91,2.094v90.52
		l-44.938,65.062v274.899v0.839l0,0v0.161c10.226,0,20.453-0.161,30.602-0.563c13.137-0.472,26.301-1.43,39.43-2.722
		c1.242-0.125,2.484-0.246,3.707-0.378c3.578-0.379,7.172-0.622,10.738-1.086c15.301-1.934,32.214-3.785,46.386-10.309
		c6.363-2.898,11.438-6.926,10.793-14.336c-0.324-2.98-0.726-5.957-0.969-8.937c-3.058-34.551-5.476-69.18-8.133-103.727
		c-2.336-29.957-3.785-52.262-7.488-82.137c-0.402-2.578-1.852-8.942,0.402-11.195c0.301-0.301,0.594-0.465,0.886-0.594
		c0.074-0.031,0.145-0.086,0.223-0.11c2.347-0.73,4.335,3.492,5.171,5.375c0.59,1.218,1.086,2.473,1.539,3.742
		c0.043,0.125,0.09,0.246,0.133,0.367c1.371,4,2.184,8.202,3.078,12.32c3.465,16.106,6.926,24.313,10.469,40.422
		c10.148,47.028,20.297,94.141,30.523,141.172c2.496,11.196,4.43,22.711,7.41,33.825c1.527,6.762,8.05,11.191,14.898,9.984
		l49.446-8.457C508.461,490.923,513.133,483.998,511.761,476.83z M250.999,102.044c-4.914,0-8.859-4.027-8.859-8.859
		c0-4.914,3.946-8.86,8.859-8.86c4.832,0,8.86,3.946,8.86,8.86C259.859,98.017,255.831,102.044,250.999,102.044z" style="fill: rgb(0, 0, 0);"></path>
</g>
</svg>
