<!--?xml version="1.0" encoding="utf-8"?-->
<!-- Generator: Adobe Illustrator 18.1.1, SVG Export Plug-In . SVG Version: 6.00 Build 0)  -->

<svg version="1.1" id="_x31_0" xmlns="http://www.w3.org/2000/svg" xmlns:xlink="http://www.w3.org/1999/xlink" x="0px" y="0px" viewBox="0 0 512 512" style="enable-background:new 0 0 512 512;" xml:space="preserve">
<style type="text/css">
	.st0{fill:#374149;}
</style>
<g>
	<path class="st0" d="M336.59,129.946H175.41c-34.203,0-61.914,27.726-61.914,61.934v250.238c0,29.227,20.394,54.641,49.012,60.563
		c29.175,6.035,60.66,9.32,93.484,9.32c32.84,0,64.324-3.285,93.485-9.32c28.633-5.922,49.027-31.336,49.027-60.563V191.879
		C398.504,157.672,370.778,129.946,336.59,129.946z M318.355,367.149v17.406h-124.71v-17.406h124.492H318.355z M278.973,278.141
		v42.546h-45.946v-42.546h-42.562v-45.958h42.562v-42.55h45.946v42.55h42.546v45.958H278.973z M193.645,425.156V407.75h124.71
		v17.406H193.863H193.645z" style="fill: rgb(0, 0, 0);"></path>
	<path class="st0" d="M175.805,38.383h19.894c5.531,0,10.008,4.476,10.008,10.007v51.438c0,7.641,6.262,13.89,13.918,13.89h72.762
		c7.657,0,13.906-6.25,13.906-13.89V48.39c0-5.531,4.488-10.007,10.02-10.007h19.882c7.602,0,13.809-6.223,13.809-13.809V13.809
		C350.004,6.222,343.797,0,336.195,0h-160.39c-7.602,0-13.809,6.222-13.809,13.809v10.766
		C161.996,32.16,168.203,38.383,175.805,38.383z M241.019,86.598h-15.578V39.844h15.578V86.598z" style="fill: rgb(0, 0, 0);"></path>
</g>
</svg>
