<!--?xml version="1.0" encoding="utf-8"?-->
<!-- Generator: Adobe Illustrator 18.1.1, SVG Export Plug-In . SVG Version: 6.00 Build 0)  -->

<svg version="1.1" id="_x31_0" xmlns="http://www.w3.org/2000/svg" xmlns:xlink="http://www.w3.org/1999/xlink" x="0px" y="0px" viewBox="0 0 512 512" style="width: 256px; height: 256px; opacity: 1;" xml:space="preserve">
<style type="text/css">
	.st0{fill:#374149;}
</style>
<g>
	<path class="st0" d="M473.257,165.111c-9.731-16.103-21.242-31.434-34.66-45.64l44.149-44.148c3.983-3.987,3.983-10.45,0-14.433
		c-3.99-3.986-10.45-3.986-14.432,0l-44.234,44.234C332.986,22.127,198.74,13.123,99.104,78.342
		c-9.978,6.478-19.548,13.639-28.631,21.465c0.07-0.004,0.145-0.004,0.211-0.008c-0.066,0.059-0.133,0.11-0.199,0.168
		c26.139-1.538,54.504,8.966,76.379,30.837c26.342,26.342,36.19,62.111,28.373,92.089c-1.054,4.05,0,8.353,2.96,11.309
		c2.96,2.959,7.263,4.014,11.309,2.956c23.007-5.994,49.397-1.511,72.338,12.78c0.343,0.215,0.691,0.422,1.031,0.641
		c2.834,1.812,5.603,3.795,8.313,5.908c0.286,0.226,0.59,0.422,0.875,0.648l-128.283,128.29l-0.445,0.446l-5.615-5.611
		l-45.976,45.972c-12.667,12.667-33.286,12.667-45.953,0c-12.69-12.683-12.69-33.305-0.015-45.972
		c7.083-7.087,7.083-18.568,0-25.659c-7.076-7.071-18.572-7.087-25.663,0c-26.826,26.83-26.811,70.46,0.016,97.29
		c26.81,26.81,70.443,26.826,97.27,0l45.975-45.976l-5.607-5.612l121.512-121.511l7.454-7.443
		c22.324,25.659,30.517,58.429,23.254,86.29c-1.054,4.049,0,8.352,2.96,11.308c2.96,2.96,7.255,4.014,11.308,2.96
		c29.974-7.814,65.742,2.034,92.085,28.377c21.875,21.871,32.379,50.236,30.841,76.375c16.795-19.314,30.302-40.501,40.544-62.829
		C524.481,334.403,519.37,241.151,473.257,165.111z" style="fill: rgb(0, 0, 0);"></path>
</g>
</svg>
